<svg xmlns="http://www.w3.org/2000/svg" viewBox="0 0 32 32" role="img" aria-label="Khmer Win">
  <defs>
    <linearGradient id="kw-gold" x1="6" y1="4" x2="26" y2="28" gradientUnits="userSpaceOnUse">
      <stop offset="0" stop-color="#fef3c7" />
      <stop offset="0.35" stop-color="#fbbf24" />
      <stop offset="0.7" stop-color="#f59e0b" />
      <stop offset="1" stop-color="#b45309" />
    </linearGradient>
    <linearGradient id="kw-bg" x1="0" y1="0" x2="32" y2="32" gradientUnits="userSpaceOnUse">
      <stop offset="0" stop-color="#262626" />
      <stop offset="1" stop-color="#0a0a0a" />
    </linearGradient>
    <radialGradient id="kw-shine" cx="50%" cy="28%" r="55%" fx="50%" fy="20%">
      <stop offset="0" stop-color="#fbbf24" stop-opacity="0.22" />
      <stop offset="1" stop-color="#fbbf24" stop-opacity="0" />
    </radialGradient>
  </defs>

  <!-- Nền bo góc — khớp slide statistics (#070707) -->
  <rect width="32" height="32" rx="7" fill="url(#kw-bg)" />
  <rect width="32" height="32" rx="7" fill="url(#kw-shine)" />
  <rect
    width="32"
    height="32"
    rx="7"
    fill="none"
    stroke="url(#kw-gold)"
    stroke-width="1.35"
    opacity="0.9"
  />

  <!-- Vương miện tối giản (gợi logo) -->
  <path
    fill="url(#kw-gold)"
    d="M16 5.25 17.55 8.1h3.15l-2.55 1.85.95 3.05L16 11.35l-3.1 1.65.95-3.05L11.3 8.1h3.15L16 5.25Z"
  />
  <rect x="11.8" y="11.15" width="8.4" height="1.05" rx="0.5" fill="#78350f" opacity="0.55" />

  <!-- Chữ K đậm — đọc rõ ở 16×16 -->
  <path
    fill="url(#kw-gold)"
    d="M9.25 12.25h3.05v4.35l6.35-4.35h3.65l-5.55 5.55 6.1 7.2h-3.55l-5.35-6.35v6.35H9.25V12.25Z"
  />
</svg>
